<?xml version="1.0" encoding="UTF-8" standalone="no"?>
<svg
   xmlns:dc="http://purl.org/dc/elements/1.1/"
   xmlns:cc="http://creativecommons.org/ns#"
   xmlns:rdf="http://www.w3.org/1999/02/22-rdf-syntax-ns#"
   xmlns:svg="http://www.w3.org/2000/svg"
   xmlns="http://www.w3.org/2000/svg"
   xmlns:sodipodi="http://sodipodi.sourceforge.net/DTD/sodipodi-0.dtd"
   xmlns:inkscape="http://www.inkscape.org/namespaces/inkscape"
   width="34.093376mm"
   height="43.05595mm"
   viewBox="0 0 34.093375 43.05595"
   version="1.1"
   id="svg8"
   inkscape:version="1.0.1 (3bc2e813f5, 2020-09-07)"
   sodipodi:docname="favicon.svg">
  <defs
     id="defs2" />
  <sodipodi:namedview
     id="base"
     pagecolor="#ffffff"
     bordercolor="#666666"
     borderopacity="1.0"
     inkscape:pageopacity="0.0"
     inkscape:pageshadow="2"
     inkscape:zoom="1.2245442"
     inkscape:cx="288.80648"
     inkscape:cy="232.15821"
     inkscape:document-units="mm"
     inkscape:current-layer="layer1"
     inkscape:document-rotation="0"
     showgrid="false"
     showguides="true"
     inkscape:guide-bbox="true"
     inkscape:window-width="1920"
     inkscape:window-height="1050"
     inkscape:window-x="0"
     inkscape:window-y="30"
     inkscape:window-maximized="1" />
  <metadata
     id="metadata5">
    <rdf:RDF>
      <cc:Work
         rdf:about="">
        <dc:format>image/svg+xml</dc:format>
        <dc:type
           rdf:resource="http://purl.org/dc/dcmitype/StillImage" />
        <dc:title></dc:title>
      </cc:Work>
    </rdf:RDF>
  </metadata>
  <g
     inkscape:label="Layer 1"
     inkscape:groupmode="layer"
     id="layer1"
     transform="translate(-38.595272,-105.19758)">
    <g
       id="g877">
      <path
         id="path837"
         style="font-style:normal;font-variant:normal;font-weight:normal;font-stretch:normal;font-size:50.8px;line-height:1.25;font-family:'IBM Plex Sans';-inkscape-font-specification:'IBM Plex Sans';stroke-width:0.264583"
         d="m 51.708533,112.79523 v 3.75946 h 9.804053 c 1.693333,0 3.014281,0.42302 3.962548,1.26969 0.948267,0.84667 1.422135,2.06593 1.422135,3.65766 v 1.72703 c 0,1.59173 -0.473868,2.81099 -1.422135,3.65765 -0.948267,0.84667 -2.269215,1.27021 -3.962548,1.27021 h -9.804053 v 3.65766 h 10.515121 c 1.8288,0 3.268215,0.47387 4.318082,1.42213 1.049866,0.9144 1.575099,2.26942 1.575099,4.06436 v 1.72702 c 0,1.79493 -0.525233,3.16673 -1.575099,4.115 -1.049867,0.9144 -2.489282,1.37149 -4.318082,1.37149 H 51.708533 v 3.75894 h 11.835971 c 1.3208,0 2.540058,-0.25371 3.657658,-0.76171 1.1176,-0.54186 2.083147,-1.26996 2.895947,-2.18436 0.8128,-0.9144 1.439206,-1.99842 1.879473,-3.25148 0.474133,-1.25307 0.711067,-2.60757 0.711067,-4.06384 0,-1.45626 -0.253711,-2.6923 -0.761711,-3.7083 -0.474134,-1.04987 -1.066986,-1.89695 -1.778186,-2.54041 -0.7112,-0.67734 -1.473366,-1.16798 -2.286166,-1.47278 -0.778934,-0.3048 -1.490253,-0.47411 -2.133719,-0.50798 v -0.30489 c 0.575733,-0.1016 1.202655,-0.28821 1.879989,-0.55914 0.677333,-0.3048 1.303737,-0.74512 1.87947,-1.32085 0.575733,-0.6096 1.049602,-1.37125 1.422135,-2.28565 0.372534,-0.9144 0.559139,-2.03197 0.559139,-3.35277 0,-2.77706 -0.846563,-4.99542 -2.539897,-6.65489 -1.659466,-1.65946 -3.962738,-2.48925 -6.909138,-2.48925 z" />
      <path
         id="path837-3"
         style="font-style:normal;font-variant:normal;font-weight:normal;font-stretch:normal;font-size:50.8px;line-height:1.25;font-family:'IBM Plex Sans';-inkscape-font-specification:'IBM Plex Sans';stroke-width:0.264583"
         d="m 59.575386,105.19758 v 3.75946 h -9.804053 c -1.693334,0 -3.014282,0.42302 -3.962549,1.26969 -0.948266,0.84666 -1.422135,2.06592 -1.422135,3.65765 v 1.72703 c 0,1.59173 0.473869,2.81099 1.422135,3.65766 0.948267,0.84666 2.269215,1.2702 3.962549,1.2702 h 9.804053 v 3.65766 H 49.060265 c -1.8288,0 -3.268215,0.47387 -4.318082,1.42214 -1.049867,0.9144 -1.575099,2.26942 -1.575099,4.06435 v 1.72703 c 0,1.79493 0.525232,3.16672 1.575099,4.11499 1.049867,0.9144 2.489282,1.37149 4.318082,1.37149 h 10.515121 v 3.75895 H 47.739415 c -1.3208,0 -2.540059,-0.25371 -3.657659,-0.76171 -1.1176,-0.54187 -2.083146,-1.26997 -2.895946,-2.18437 -0.8128,-0.9144 -1.439208,-1.99841 -1.879478,-3.25148 -0.47413,-1.25307 -0.71106,-2.60757 -0.71106,-4.06383 0,-1.45627 0.25371,-2.6923 0.76171,-3.7083 0.47413,-1.04987 1.066984,-1.89695 1.778184,-2.54042 0.7112,-0.67733 1.473367,-1.16798 2.286167,-1.47278 0.778933,-0.3048 1.490252,-0.47411 2.133719,-0.50798 v -0.30489 c -0.575734,-0.1016 -1.202656,-0.2882 -1.879989,-0.55913 -0.677334,-0.3048 -1.303737,-0.74512 -1.879471,-1.32085 -0.575733,-0.6096 -1.049602,-1.37125 -1.422135,-2.28565 -0.372535,-0.9144 -0.559135,-2.03197 -0.559135,-3.35277 0,-2.77707 0.84656,-4.99542 2.539893,-6.65489 1.659467,-1.65947 3.962739,-2.48925 6.909139,-2.48925 z" />
    </g>
  </g>
</svg>
