<svg version="1.1" xmlns="http://www.w3.org/2000/svg" xmlns:xlink="http://www.w3.org/1999/xlink" x="0px" y="0px" viewBox="0 0 32 37" style="enable-background:new 0 0 32 37;" xml:space="preserve">
  <path d="M15.41,24C7.121,23.412,0.56,16.6,0.5,8.175C8.79,8.763,15.35,15.575,15.41,24z M16.59,24 c8.29-0.588,14.85-7.4,14.91-15.825C23.21,8.763,16.65,15.575,16.59,24z M0.5,20.813c0.06,8.425,6.621,15.237,14.91,15.825 C15.35,28.213,8.79,21.401,0.5,20.813z M16.59,36.638c8.29-0.588,14.85-7.4,14.91-15.825C23.21,21.401,16.65,28.213,16.59,36.638z  M19.306,10.16c0-1.826-1.48-3.306-3.306-3.306c-1.826,0-3.306,1.48-3.306,3.306c0,1.826,1.48,3.306,3.306,3.306 C17.826,13.466,19.306,11.985,19.306,10.16z M12.211,6.973c1.826,0,3.306-1.48,3.306-3.306s-1.48-3.306-3.306-3.306 c-1.826,0-3.306,1.48-3.306,3.306S10.386,6.973,12.211,6.973z M19.789,6.973c1.826,0,3.306-1.48,3.306-3.306 s-1.48-3.306-3.306-3.306c-1.826,0-3.306,1.48-3.306,3.306S17.963,6.973,19.789,6.973z"></path>
</svg> 
