<?xml version="1.0" encoding="UTF-8" standalone="no"?>
<svg
   xmlns:dc="http://purl.org/dc/elements/1.1/"
   xmlns:cc="http://creativecommons.org/ns#"
   xmlns:rdf="http://www.w3.org/1999/02/22-rdf-syntax-ns#"
   xmlns:svg="http://www.w3.org/2000/svg"
   xmlns="http://www.w3.org/2000/svg"
   xmlns:sodipodi="http://sodipodi.sourceforge.net/DTD/sodipodi-0.dtd"
   xmlns:inkscape="http://www.inkscape.org/namespaces/inkscape"
   version="1.1"
   x="0px"
   y="0px"
   viewBox="0 0 32 25"
   style="enable-background:new 0 0 32 25;"
   xml:space="preserve"
   id="svg4"
   sodipodi:docname="small_coffee_plant.svg"
   inkscape:version="1.0.1 (3bc2e813f5, 2020-09-07)"><metadata
   id="metadata10"><rdf:RDF><cc:Work
       rdf:about=""><dc:format>image/svg+xml</dc:format><dc:type
         rdf:resource="http://purl.org/dc/dcmitype/StillImage" /></cc:Work></rdf:RDF></metadata><defs
   id="defs8" /><sodipodi:namedview
   pagecolor="#ffffff"
   bordercolor="#666666"
   borderopacity="1"
   objecttolerance="10"
   gridtolerance="10"
   guidetolerance="10"
   inkscape:pageopacity="0"
   inkscape:pageshadow="2"
   inkscape:window-width="1920"
   inkscape:window-height="1050"
   id="namedview6"
   showgrid="false"
   inkscape:zoom="28.6"
   inkscape:cx="16"
   inkscape:cy="12.5"
   inkscape:window-x="0"
   inkscape:window-y="30"
   inkscape:window-maximized="1"
   inkscape:current-layer="svg4"
   inkscape:document-rotation="0" />
  <path
   d="M15.41,24.319c-8.29-0.588-14.85-7.4-14.91-15.825C8.79,9.082,15.35,15.894,15.41,24.319z M16.59,24.319 c8.29-0.588,14.85-7.4,14.91-15.825C23.21,9.082,16.65,15.894,16.59,24.319z M19.306,10.479c0-1.826-1.48-3.306-3.306-3.306 s-3.306,1.48-3.306,3.306c0,1.826,1.48,3.306,3.306,3.306S19.306,12.305,19.306,10.479z M12.211,7.292 c1.826,0,3.306-1.48,3.306-3.306s-1.48-3.306-3.306-3.306s-3.306,1.48-3.306,3.306S10.386,7.292,12.211,7.292z M19.789,7.292 c1.826,0,3.306-1.48,3.306-3.306s-1.48-3.306-3.306-3.306s-3.306,1.48-3.306,3.306S17.963,7.292,19.789,7.292z"
   id="path2"
   style="fill:#000000" />
</svg>
